<svg viewBox="0 0 167 148" fill="none" xmlns="http://www.w3.org/2000/svg">
<g clip-path="url(#clip0_27_14931)">
<path d="M85.5143 0.322925L80.1124 1.70662L13.5597 18.7541L8.1578 20.1378C5.53577 20.8126 3.29028 22.4929 1.91396 24.8101C0.537631 27.1273 0.142877 29.8921 0.816296 32.4981L24.2402 122.721C24.9195 125.326 26.6112 127.556 28.944 128.923C31.2769 130.29 34.0604 130.682 36.6839 130.014L36.6979 130.01L114.026 110.202L114.04 110.199C116.662 109.524 118.908 107.844 120.284 105.526C121.661 103.209 122.055 100.444 121.382 97.8384L97.9581 7.61522C97.2787 5.01078 95.5871 2.78034 93.2542 1.41324C90.9214 0.0461429 88.1378 -0.345972 85.5143 0.322925Z" fill="#F2F2F2"/>
<path d="M86.2489 3.15148L79.8507 4.79038L15.2904 21.3275L8.89235 22.9664C7.02514 23.4469 5.42606 24.6434 4.44594 26.2936C3.46582 27.9437 3.18471 29.9126 3.66426 31.7684L27.0882 121.992C27.5719 123.846 28.7766 125.435 30.4379 126.408C32.0991 127.382 34.0814 127.661 35.9496 127.185L35.9636 127.181L113.292 107.373L113.306 107.37C115.173 106.889 116.772 105.693 117.753 104.042C118.733 102.392 119.014 100.423 118.534 98.5677L95.1103 8.3445C94.6266 6.48983 93.4219 4.9015 91.7607 3.92795C90.0994 2.95441 88.1172 2.67516 86.2489 3.15148Z" fill="white"/>
<path d="M94.268 81.8672L55.1494 91.8875C54.7126 91.999 54.2491 91.9338 53.8607 91.706C53.4724 91.4782 53.1909 91.1066 53.0783 90.6728C52.9657 90.239 53.0311 89.7786 53.2601 89.3927C53.4892 89.0067 53.8631 88.727 54.2997 88.6148L93.4184 78.5946C93.8553 78.4826 94.3191 78.5477 94.7077 78.7754C95.0963 79.0032 95.3779 79.3749 95.4906 79.8089C95.6033 80.2429 95.5378 80.7036 95.3085 81.0896C95.0792 81.4756 94.705 81.7553 94.268 81.8672Z" fill="#F2F2F2"/>
<path d="M102.498 85.6495L56.5836 97.4104C56.3672 97.466 56.1419 97.4787 55.9205 97.4478C55.6992 97.4169 55.4861 97.343 55.2935 97.2302C55.1009 97.1175 54.9326 96.9682 54.7982 96.7908C54.6637 96.6134 54.5658 96.4114 54.51 96.1964C54.4541 95.9814 54.4415 95.7575 54.4728 95.5377C54.5041 95.3178 54.5788 95.1063 54.6924 94.9151C54.8061 94.7239 54.9566 94.5568 55.1353 94.4234C55.314 94.29 55.5175 94.1929 55.734 94.1377L101.648 82.3768C102.085 82.2649 102.549 82.3299 102.937 82.5577C103.326 82.7854 103.608 83.1572 103.72 83.5911C103.833 84.0251 103.768 84.4858 103.538 84.8718C103.309 85.2578 102.935 85.5375 102.498 85.6495Z" fill="#F2F2F2"/>
<path d="M139.466 23.1929H59.5786C56.87 23.1959 54.2732 24.266 52.3579 26.1684C50.4427 28.0709 49.3653 30.6502 49.3623 33.3406V126.516C49.3653 129.206 50.4427 131.785 52.3579 133.688C54.2732 135.59 56.87 136.66 59.5786 136.663H139.466C142.174 136.66 144.771 135.59 146.686 133.688C148.602 131.785 149.679 129.206 149.682 126.516V33.3406C149.679 30.6502 148.602 28.0709 146.686 26.1684C144.771 24.266 142.174 23.1959 139.466 23.1929Z" fill="#E6E6E6"/>
<path d="M139.466 26.1143H59.579C57.6501 26.1164 55.8009 26.8785 54.437 28.2332C53.0731 29.588 52.3059 31.4248 52.3037 33.3407V126.516C52.3059 128.432 53.0731 130.268 54.437 131.623C55.8009 132.978 57.6501 133.74 59.579 133.742H139.466C141.395 133.74 143.244 132.978 144.608 131.623C145.972 130.268 146.739 128.432 146.742 126.516V33.3407C146.739 31.4248 145.972 29.588 144.608 28.2332C143.244 26.8785 141.395 26.1164 139.466 26.1143Z" fill="white"/>
<path d="M147.859 148C158.159 148 166.509 139.706 166.509 129.475C166.509 119.245 158.159 110.951 147.859 110.951C137.56 110.951 129.21 119.245 129.21 129.475C129.21 139.706 137.56 148 147.859 148Z" fill="#0071C2"/>
<path d="M156.778 127.06H150.291V120.616C150.291 119.976 150.035 119.361 149.579 118.908C149.123 118.455 148.504 118.2 147.859 118.2C147.214 118.2 146.595 118.455 146.139 118.908C145.682 119.361 145.426 119.976 145.426 120.616V127.06H138.939C138.294 127.06 137.676 127.314 137.219 127.767C136.763 128.22 136.507 128.835 136.507 129.476C136.507 130.117 136.763 130.731 137.219 131.184C137.676 131.638 138.294 131.892 138.939 131.892H145.426V138.335C145.426 138.976 145.682 139.591 146.139 140.044C146.595 140.497 147.214 140.752 147.859 140.752C148.504 140.752 149.123 140.497 149.579 140.044C150.035 139.591 150.291 138.976 150.291 138.335V131.892H156.778C157.423 131.892 158.042 131.638 158.498 131.184C158.954 130.731 159.211 130.117 159.211 129.476C159.211 128.835 158.954 128.22 158.498 127.767C158.042 127.314 157.423 127.06 156.778 127.06Z" fill="white"/>
<path d="M125.488 48.8612H95.7042C95.253 48.8612 94.8203 48.6832 94.5012 48.3662C94.1822 48.0493 94.0029 47.6195 94.0029 47.1713C94.0029 46.7231 94.1822 46.2933 94.5012 45.9764C94.8203 45.6595 95.253 45.4814 95.7042 45.4814H125.488C125.94 45.4814 126.372 45.6595 126.691 45.9764C127.01 46.2933 127.19 46.7231 127.19 47.1713C127.19 47.6195 127.01 48.0493 126.691 48.3662C126.372 48.6832 125.94 48.8612 125.488 48.8612Z" fill="#CCCCCC"/>
<path d="M132.506 54.5643H95.7042C95.4808 54.5643 95.2596 54.5206 95.0532 54.4357C94.8468 54.3508 94.6592 54.2263 94.5012 54.0694C94.3432 53.9124 94.2179 53.7262 94.1324 53.5211C94.0469 53.3161 94.0029 53.0964 94.0029 52.8744C94.0029 52.6525 94.0469 52.4328 94.1324 52.2278C94.2179 52.0227 94.3432 51.8364 94.5012 51.6795C94.6592 51.5226 94.8468 51.3981 95.0532 51.3132C95.2596 51.2283 95.4808 51.1846 95.7042 51.1846H132.506C132.957 51.1846 133.39 51.3626 133.709 51.6795C134.028 51.9964 134.207 52.4263 134.207 52.8744C134.207 53.3226 134.028 53.7525 133.709 54.0694C133.39 54.3863 132.957 54.5643 132.506 54.5643Z" fill="#CCCCCC"/>
<path d="M87.4111 58H67.5889C67.4328 57.9998 67.2831 57.9402 67.1727 57.834C67.0623 57.7279 67.0002 57.5841 67 57.434V42.566C67.0002 42.4159 67.0623 42.2721 67.1727 42.166C67.2831 42.0598 67.4328 42.0002 67.5889 42H87.4111C87.5672 42.0002 87.7169 42.0598 87.8273 42.166C87.9377 42.2721 87.9998 42.4159 88 42.566V57.434C87.9998 57.5841 87.9377 57.7279 87.8273 57.834C87.7169 57.9402 87.5672 57.9998 87.4111 58Z" fill="#0071C2"/>
</g>
<defs>
<clipPath id="clip0_27_14931">
<rect width="166.017" height="148" fill="white" transform="translate(0.491211)"/>
</clipPath>
</defs>
</svg>
