<svg width="167" height="149" viewBox="0 0 167 149" fill="none" xmlns="http://www.w3.org/2000/svg">
<g clip-path="url(#clip0_647_20925)">
<path d="M75.2759 1.1063L5.58776 31.157C3.22611 32.1785 1.36339 34.0888 0.408266 36.4688C-0.546856 38.8488 -0.51638 41.5041 0.493006 43.8522L35.542 125.132C36.5567 127.477 38.4668 129.322 40.8532 130.261C43.2395 131.2 45.9073 131.157 48.2712 130.141L117.959 100.09C120.321 99.0686 122.184 97.1582 123.139 94.7783C124.094 92.3983 124.063 89.7429 123.054 87.3949L88.0051 6.11552C86.9904 3.76973 85.0803 1.92492 82.694 0.985834C80.3076 0.0467488 77.6398 0.0900693 75.2759 1.1063Z" fill="#E6E6E6"/>
<path d="M76.3755 3.65397L6.68726 33.7047C5.00547 34.4322 3.67898 35.7925 2.99881 37.4874C2.31864 39.1822 2.34034 41.0731 3.05915 42.7453L38.1082 124.025C38.8308 125.695 40.191 127.009 41.8903 127.678C43.5897 128.346 45.4895 128.315 47.1729 127.592L116.861 97.541C118.543 96.8136 119.869 95.4532 120.55 93.7583C121.23 92.0635 121.208 90.1726 120.489 88.5005L85.4402 7.22116C84.7176 5.55068 83.3574 4.23696 81.658 3.56821C79.9587 2.89946 78.0589 2.9303 76.3755 3.65397Z" fill="white"/>
<path d="M72.7402 28.7548L23.2056 50.1149C22.812 50.2847 22.3676 50.2921 21.97 50.1357C21.5725 49.9793 21.2545 49.6717 21.0859 49.2808C20.9173 48.8898 20.9119 48.4474 21.0711 48.051C21.2302 47.6545 21.5407 47.3364 21.9343 47.1667L71.4688 25.8065C71.8624 25.6368 72.3069 25.6293 72.7044 25.7858C73.1019 25.9422 73.42 26.2497 73.5886 26.6407C73.7572 27.0317 73.7625 27.474 73.6034 27.8705C73.4443 28.267 73.1338 28.5851 72.7402 28.7548Z" fill="#E0E4E6"/>
<path d="M81.0073 31.09L25.3509 55.0899C25.156 55.174 24.9466 55.2191 24.7346 55.2226C24.5226 55.2262 24.3122 55.1882 24.1153 55.1107C23.9185 55.0332 23.7391 54.9179 23.5874 54.7712C23.4357 54.6245 23.3147 54.4494 23.2312 54.2558C23.1477 54.0622 23.1034 53.854 23.1009 53.6429C23.0983 53.4319 23.1376 53.2223 23.2164 53.026C23.2952 52.8297 23.4119 52.6505 23.56 52.4988C23.7082 52.3471 23.8847 52.2257 24.0796 52.1417L79.736 28.1417C80.1296 27.972 80.574 27.9645 80.9716 28.1209C81.3691 28.2774 81.6871 28.5849 81.8557 28.9759C82.0243 29.3668 82.0297 29.8092 81.8705 30.2057C81.7114 30.6021 81.4009 30.9202 81.0073 31.09Z" fill="#E0E4E6"/>
<path d="M87.1446 45.3224L31.4882 69.3224C31.2933 69.4064 31.0839 69.4515 30.8719 69.4551C30.6599 69.4586 30.4495 69.4206 30.2526 69.3432C30.0558 69.2657 29.8764 69.1503 29.7247 69.0036C29.573 68.857 29.4519 68.6818 29.3684 68.4882C29.285 68.2946 29.2407 68.0864 29.2382 67.8754C29.2356 67.6644 29.2749 67.4547 29.3536 67.2584C29.4324 67.0621 29.5492 66.883 29.6973 66.7312C29.8454 66.5795 30.022 66.4582 30.2169 66.3741L85.8733 42.3742C86.2669 42.2044 86.7113 42.197 87.1088 42.3534C87.5064 42.5098 87.8244 42.8174 87.993 43.2083C88.1616 43.5993 88.1669 44.0417 88.0078 44.4381C87.8487 44.8346 87.5382 45.1527 87.1446 45.3224Z" fill="#E0E4E6"/>
<path d="M89.7777 51.4287L34.1213 75.4287C33.9265 75.5128 33.717 75.5578 33.505 75.5614C33.293 75.565 33.0826 75.5269 32.8858 75.4495C32.6889 75.372 32.5095 75.2566 32.3578 75.11C32.2061 74.9633 32.0851 74.7881 32.0016 74.5945C31.9181 74.401 31.8738 74.1927 31.8713 73.9817C31.8688 73.7707 31.908 73.561 31.9868 73.3647C32.0656 73.1684 32.1824 72.9893 32.3305 72.8376C32.4786 72.6858 32.6551 72.5645 32.85 72.4805L88.5064 48.4805C88.9 48.3107 89.3445 48.3033 89.742 48.4597C90.1395 48.6161 90.4576 48.9237 90.6262 49.3146C90.7947 49.7056 90.8001 50.148 90.641 50.5444C90.4819 50.9409 90.1714 51.259 89.7777 51.4287Z" fill="#E0E4E6"/>
<path d="M92.4109 57.535L36.7545 81.535C36.5596 81.6191 36.3502 81.6642 36.1382 81.6677C35.9262 81.6713 35.7157 81.6332 35.5189 81.5558C35.3221 81.4783 35.1427 81.363 34.991 81.2163C34.8393 81.0696 34.7182 80.8944 34.6347 80.7009C34.5513 80.5073 34.507 80.299 34.5045 80.088C34.5019 79.877 34.5412 79.6674 34.6199 79.4711C34.6987 79.2747 34.8155 79.0956 34.9636 78.9439C35.1117 78.7922 35.2883 78.6708 35.4832 78.5868L91.1396 54.5868C91.5332 54.4171 91.9776 54.4096 92.3751 54.566C92.7727 54.7225 93.0907 55.03 93.2593 55.421C93.4279 55.8119 93.4332 56.2543 93.2741 56.6508C93.115 57.0472 92.8045 57.3653 92.4109 57.535Z" fill="#E0E4E6"/>
<path d="M95.044 63.6414L39.3876 87.6413C39.1927 87.7254 38.9833 87.7705 38.7713 87.774C38.5593 87.7776 38.3489 87.7396 38.1521 87.6621C37.9552 87.5846 37.7758 87.4693 37.6241 87.3226C37.4724 87.1759 37.3514 87.0008 37.2679 86.8072C37.1844 86.6136 37.1401 86.4053 37.1376 86.1943C37.1351 85.9833 37.1743 85.7737 37.2531 85.5774C37.3319 85.3811 37.4486 85.2019 37.5968 85.0502C37.7449 84.8985 37.9214 84.7771 38.1163 84.6931L93.7727 60.6931C94.1663 60.5234 94.6108 60.5159 95.0083 60.6723C95.4058 60.8288 95.7239 61.1363 95.8924 61.5273C96.061 61.9182 96.0664 62.3606 95.9073 62.7571C95.7482 63.1535 95.4376 63.4716 95.044 63.6414Z" fill="#E0E4E6"/>
<path d="M94.268 82.3672L55.1494 92.3875C54.7126 92.499 54.2491 92.4338 53.8607 92.206C53.4724 91.9782 53.1909 91.6066 53.0783 91.1728C52.9657 90.739 53.0311 90.2786 53.2601 89.8927C53.4892 89.5067 53.8631 89.227 54.2997 89.1148L93.4184 79.0946C93.8553 78.9826 94.3191 79.0477 94.7077 79.2754C95.0963 79.5032 95.3779 79.8749 95.4906 80.3089C95.6033 80.7429 95.5378 81.2036 95.3085 81.5896C95.0792 81.9756 94.705 82.2553 94.268 82.3672Z" fill="#F2F2F2"/>
<path d="M102.498 86.1495L56.5836 97.9104C56.3672 97.966 56.1419 97.9787 55.9205 97.9478C55.6992 97.9169 55.4861 97.843 55.2935 97.7302C55.1009 97.6175 54.9326 97.4682 54.7982 97.2908C54.6637 97.1134 54.5658 96.9114 54.51 96.6964C54.4541 96.4814 54.4415 96.2575 54.4728 96.0377C54.5041 95.8178 54.5788 95.6063 54.6924 95.4151C54.8061 95.2239 54.9566 95.0568 55.1353 94.9234C55.314 94.79 55.5175 94.6929 55.734 94.6377L101.648 82.8768C102.085 82.7649 102.549 82.8299 102.937 83.0577C103.326 83.2854 103.608 83.6572 103.72 84.0911C103.833 84.5251 103.768 84.9858 103.538 85.3718C103.309 85.7578 102.935 86.0375 102.498 86.1495Z" fill="#F2F2F2"/>
<path d="M144.466 23.6934H64.5786C61.87 23.6964 59.2732 24.7665 57.3579 26.6689C55.4427 28.5713 54.3653 31.1507 54.3623 33.8411V127.016C54.3653 129.706 55.4427 132.286 57.3579 134.188C59.2732 136.091 61.87 137.161 64.5786 137.164H144.466C147.174 137.161 149.771 136.091 151.686 134.188C153.602 132.286 154.679 129.706 154.682 127.016V33.8411C154.679 31.1507 153.602 28.5713 151.686 26.6689C149.771 24.7665 147.174 23.6964 144.466 23.6934Z" fill="#E6E6E6"/>
<path d="M144.466 26.6143H64.579C62.6501 26.6164 60.8009 27.3785 59.437 28.7332C58.0731 30.088 57.3059 31.9248 57.3037 33.8407V127.016C57.3059 128.932 58.0731 130.768 59.437 132.123C60.8009 133.478 62.6501 134.24 64.579 134.242H144.466C146.395 134.24 148.244 133.478 149.608 132.123C150.972 130.768 151.739 128.932 151.742 127.016V33.8407C151.739 31.9248 150.972 30.088 149.608 28.7332C148.244 27.3785 146.395 26.6164 144.466 26.6143Z" fill="white"/>
<path d="M130.488 49.3612H100.704C100.253 49.3612 99.8204 49.1832 99.5013 48.8662C99.1823 48.5493 99.003 48.1195 99.003 47.6713C99.003 47.2231 99.1823 46.7933 99.5013 46.4764C99.8204 46.1595 100.253 45.9814 100.704 45.9814H130.488C130.94 45.9814 131.372 46.1595 131.691 46.4764C132.01 46.7933 132.19 47.2231 132.19 47.6713C132.19 48.1195 132.01 48.5493 131.691 48.8662C131.372 49.1832 130.94 49.3612 130.488 49.3612Z" fill="#D0D5D8"/>
<path d="M137.506 55.0643H100.704C100.481 55.0643 100.26 55.0206 100.053 54.9357C99.8468 54.8508 99.6593 54.7263 99.5013 54.5694C99.3433 54.4124 99.218 54.2262 99.1325 54.0211C99.047 53.8161 99.003 53.5964 99.003 53.3744C99.003 53.1525 99.047 52.9328 99.1325 52.7278C99.218 52.5227 99.3433 52.3364 99.5013 52.1795C99.6593 52.0226 99.8468 51.8981 100.053 51.8132C100.26 51.7283 100.481 51.6846 100.704 51.6846H137.506C137.957 51.6846 138.39 51.8626 138.709 52.1795C139.028 52.4964 139.208 52.9263 139.208 53.3744C139.208 53.8226 139.028 54.2525 138.709 54.5694C138.39 54.8863 137.957 55.0643 137.506 55.0643Z" fill="#D0D5D8"/>
<path d="M137.506 71.3797H73.7043C73.4809 71.3797 73.2597 71.336 73.0533 71.2511C72.8468 71.1662 72.6593 71.0417 72.5013 70.8848C72.3433 70.7279 72.218 70.5416 72.1325 70.3366C72.047 70.1315 72.003 69.9118 72.003 69.6899C72.003 69.468 72.047 69.2482 72.1325 69.0432C72.218 68.8382 72.3433 68.6519 72.5013 68.4949C72.6593 68.338 72.8468 68.2136 73.0533 68.1286C73.2597 68.0437 73.4809 68 73.7043 68H137.506C137.957 68 138.39 68.178 138.709 68.4949C139.028 68.8119 139.208 69.2417 139.208 69.6899C139.208 70.1381 139.028 70.5679 138.709 70.8848C138.39 71.2017 137.957 71.3797 137.506 71.3797Z" fill="#D0D5D8"/>
<path d="M137.506 78.3797H73.7043C73.4809 78.3797 73.2597 78.336 73.0533 78.2511C72.8468 78.1662 72.6593 78.0417 72.5013 77.8848C72.3433 77.7279 72.218 77.5416 72.1325 77.3366C72.047 77.1315 72.003 76.9118 72.003 76.6899C72.003 76.468 72.047 76.2482 72.1325 76.0432C72.218 75.8382 72.3433 75.6519 72.5013 75.4949C72.6593 75.338 72.8468 75.2136 73.0533 75.1286C73.2597 75.0437 73.4809 75 73.7043 75H137.506C137.957 75 138.39 75.178 138.709 75.4949C139.028 75.8119 139.208 76.2417 139.208 76.6899C139.208 77.1381 139.028 77.5679 138.709 77.8848C138.39 78.2017 137.957 78.3797 137.506 78.3797Z" fill="#D0D5D8"/>
<path d="M137.506 85.3797H73.7043C73.4809 85.3797 73.2597 85.336 73.0533 85.2511C72.8468 85.1662 72.6593 85.0417 72.5013 84.8848C72.3433 84.7279 72.218 84.5416 72.1325 84.3366C72.047 84.1315 72.003 83.9118 72.003 83.6899C72.003 83.468 72.047 83.2482 72.1325 83.0432C72.218 82.8382 72.3433 82.6519 72.5013 82.4949C72.6593 82.338 72.8468 82.2136 73.0533 82.1286C73.2597 82.0437 73.4809 82 73.7043 82H137.506C137.957 82 138.39 82.178 138.709 82.4949C139.028 82.8119 139.208 83.2417 139.208 83.6899C139.208 84.1381 139.028 84.5679 138.709 84.8848C138.39 85.2017 137.957 85.3797 137.506 85.3797Z" fill="#D0D5D8"/>
<path d="M137.506 92.3797H73.7043C73.4809 92.3797 73.2597 92.336 73.0533 92.2511C72.8468 92.1662 72.6593 92.0417 72.5013 91.8848C72.3433 91.7279 72.218 91.5416 72.1325 91.3366C72.047 91.1315 72.003 90.9118 72.003 90.6899C72.003 90.468 72.047 90.2482 72.1325 90.0432C72.218 89.8382 72.3433 89.6519 72.5013 89.4949C72.6593 89.338 72.8468 89.2136 73.0533 89.1286C73.2597 89.0437 73.4809 89 73.7043 89H137.506C137.957 89 138.39 89.178 138.709 89.4949C139.028 89.8119 139.208 90.2417 139.208 90.6899C139.208 91.1381 139.028 91.5679 138.709 91.8848C138.39 92.2017 137.957 92.3797 137.506 92.3797Z" fill="#D0D5D8"/>
<path d="M92.4111 58.5H72.5889C72.4328 58.4998 72.2831 58.4402 72.1727 58.334C72.0623 58.2279 72.0002 58.0841 72 57.934V43.066C72.0002 42.9159 72.0623 42.7721 72.1727 42.666C72.2831 42.5598 72.4328 42.5002 72.5889 42.5H92.4111C92.5672 42.5002 92.7169 42.5598 92.8273 42.666C92.9377 42.7721 92.9998 42.9159 93 43.066V57.934C92.9998 58.0841 92.9377 58.2279 92.8273 58.334C92.7169 58.4402 92.5672 58.4998 92.4111 58.5Z" fill="#0071C2"/>
<path d="M147.859 148.5C158.159 148.5 166.509 140.206 166.509 129.975C166.509 119.745 158.159 111.451 147.859 111.451C137.56 111.451 129.21 119.745 129.21 129.975C129.21 140.206 137.56 148.5 147.859 148.5Z" fill="#0071C2"/>
<path d="M138.499 135.251V139.001H142.249L153.309 127.941L149.559 124.191L138.499 135.251ZM156.209 125.041C156.599 124.651 156.599 124.021 156.209 123.631L153.869 121.291C153.479 120.901 152.849 120.901 152.459 121.291L150.629 123.121L154.379 126.871L156.209 125.041Z" fill="#F7F8F8"/>
</g>
<defs>
<clipPath id="clip0_647_20925">
<rect width="166.017" height="148" fill="white" transform="translate(0.491211 0.5)"/>
</clipPath>
</defs>
</svg>
