<svg viewBox="0 0 159 140" fill="none" xmlns="http://www.w3.org/2000/svg">
<path d="M49.5234 0C47.7735 0.00199769 46.3554 1.4201 46.3535 3.17V58.7195C46.3554 60.4694 47.7735 61.8875 49.5234 61.8895H128.096C129.846 61.8875 131.264 60.4694 131.266 58.7195V3.17C131.264 1.4201 129.846 0.00199254 128.096 0H49.5234Z" fill="#E6E6E6"/>
<path d="M99.8375 59.1865H51.7427C49.8594 59.1844 48.3331 57.6581 48.3311 55.7747V5.39179C48.3331 3.50841 49.8594 1.9821 51.7427 1.97998H125.876C127.759 1.98209 129.286 3.50838 129.288 5.39179V29.7363C129.269 45.9935 116.095 59.1681 99.8375 59.1865Z" fill="white"/>
<path d="M136.324 38.7835H120.815C117.73 38.7835 115.23 41.284 115.23 44.3684C115.23 47.4528 112.729 49.9533 109.645 49.9533H57.9369C54.8525 49.9533 52.352 47.4528 52.352 44.3684L51.3296 38.7069L41.9568 26.7575C41.3345 25.9513 40.3706 25.4831 39.3522 25.4923H21.7746C19.9474 25.4945 18.4667 26.9752 18.4646 28.8023L18.1016 38.7069H11.4563C5.58653 38.7069 0.828125 43.4653 0.828125 49.3351V118.556C0.828125 123.765 5.05082 127.988 10.2598 127.988H136.324C141.53 127.982 145.748 123.762 145.753 118.556V48.2126C145.753 43.0051 141.532 38.7835 136.324 38.7835Z" fill="#E6E6E6"/>
<path d="M51.335 38.4515H18.4648V28.547C18.467 26.7198 19.9477 25.2391 21.7749 25.2369H39.3525C40.3709 25.2277 41.3348 25.696 41.9571 26.5022L51.335 38.4515Z" fill="#CCCCCC"/>
<path d="M68.1642 120.371H13.2796C9.66213 120.367 6.73065 117.436 6.72656 113.818V98.8084C6.73065 95.1909 9.66213 92.2595 13.2796 92.2554H79.154C82.7715 92.2595 85.7029 95.1909 85.707 98.8084V102.829C85.6961 112.513 77.8483 120.36 68.1642 120.371Z" fill="white"/>
<path d="M29.0796 103.577H15.5328C13.6976 103.577 12.21 102.09 12.21 100.254C12.21 98.4193 13.6976 96.9316 15.5328 96.9316H29.0796C30.9147 96.9293 32.4043 98.415 32.4067 100.25C32.409 102.085 30.9233 103.575 29.0881 103.577H29.0796Z" fill="#0071C2"/>
<path d="M75.0876 114.057H15.5328C13.6976 114.057 12.21 112.569 12.21 110.734C12.21 108.899 13.6976 107.411 15.5328 107.411H75.0876C76.9228 107.409 78.4124 108.895 78.4147 110.73C78.4171 112.565 76.9313 114.054 75.0962 114.057L75.0876 114.057Z" fill="#0071C2"/>
<path d="M141.001 140C150.484 140 158.172 132.364 158.172 122.944C158.172 113.524 150.484 105.887 141.001 105.887C131.517 105.887 123.829 113.524 123.829 122.944C123.829 132.364 131.517 140 141.001 140Z" fill="#0071C2"/>
<path d="M149.213 120.719H143.24V114.786C143.24 114.196 143.005 113.63 142.584 113.213C142.164 112.796 141.595 112.561 141.001 112.561C140.407 112.561 139.837 112.796 139.417 113.213C138.997 113.63 138.761 114.196 138.761 114.786V120.719H132.788C132.194 120.719 131.624 120.953 131.204 121.371C130.784 121.788 130.548 122.354 130.548 122.944C130.548 123.534 130.784 124.1 131.204 124.517C131.624 124.934 132.194 125.168 132.788 125.168H138.761V131.101C138.761 131.691 138.997 132.257 139.417 132.674C139.837 133.091 140.407 133.326 141.001 133.326C141.595 133.326 142.164 133.091 142.584 132.674C143.005 132.257 143.24 131.691 143.24 131.101V125.168H149.213C149.807 125.168 150.377 124.934 150.797 124.517C151.217 124.1 151.453 123.534 151.453 122.944C151.453 122.354 151.217 121.788 150.797 121.371C150.377 120.953 149.807 120.719 149.213 120.719Z" fill="white"/>
</svg>
